<?xml version="1.0" encoding="utf-8"?>
<!-- Generator: Adobe Illustrator 18.1.1, SVG Export Plug-In . SVG Version: 6.00 Build 0)  -->
<svg version="1.1" id="Layer_1" xmlns="http://www.w3.org/2000/svg" xmlns:xlink="http://www.w3.org/1999/xlink" x="0px" y="0px"
	 viewBox="-949.1 772.5 30.3 52.7" enable-background="new -949.1 772.5 30.3 52.7" xml:space="preserve">
<path d="M-934,772.5c-7.3,0-15.2,2.1-15.2,5.9v7.9c0,1,0.5,1.8,1.3,2.6c0,0,0,0.1,0,0.1v30.3c0,3.3,6.1,5.9,13.8,5.9
	s13.8-2.6,13.8-5.9V789c0,0,0-0.1,0-0.1c0.8-0.7,1.3-1.6,1.3-2.6v-7.9C-918.8,774.6-926.6,772.5-934,772.5z M-947.8,781
	c2.5,2.2,8.3,3.4,13.8,3.4c2,0,4-0.2,5.9-0.5v6.6c-1.8,0.3-3.8,0.5-5.9,0.5c-8.2,0-13.8-2.4-13.8-4.6V781z M-921.4,811.4
	c0,2.2-5.1,4.6-12.5,4.6c-7.4,0-12.5-2.4-12.5-4.6v-17.2c2.2,2,6.9,3.4,12.5,3.4c5.6,0,10.3-1.4,12.5-3.4V811.4z M-921.4,791.6
	c0,2.2-5.1,4.6-12.5,4.6c-7.4,0-12.5-2.4-12.5-4.6v-1.8c2.9,1.6,7.8,2.5,12.5,2.5c4.7,0,9.6-0.9,12.5-2.5V791.6z M-924.1,789.5V783
	c0.5-0.1,0.9-0.3,1.3-0.5v6.4C-923.2,789.2-923.6,789.4-924.1,789.5z M-925.4,789.9c-0.4,0.1-0.9,0.2-1.3,0.3v-6.6
	c0.5-0.1,0.9-0.2,1.3-0.3V789.9z M-934,823.9c-7.4,0-12.5-2.4-12.5-4.6V814c2.2,2,6.9,3.4,12.5,3.4c5.6,0,10.3-1.4,12.5-3.4v5.4
	C-921.4,821.5-926.6,823.9-934,823.9z M-920.1,786.4c0,0.6-0.5,1.3-1.3,1.9v-6.3c0.5-0.3,0.9-0.6,1.3-0.9V786.4z M-922.4,780.9
	C-922.4,780.9-922.4,780.9-922.4,780.9c-2.4,1.2-6.5,2.2-11.6,2.2c-8.2,0-13.8-2.4-13.8-4.6s5.7-4.6,13.8-4.6
	c8.2,0,13.8,2.4,13.8,4.6C-920.1,779.3-920.9,780.1-922.4,780.9z"/>
<ellipse cx="-938.6" cy="803.3" rx="1.2" ry="2.5"/>
<ellipse cx="-929" cy="803.3" rx="1.2" ry="2.5"/>
<circle cx="-934" cy="809.4" r="1.6"/>
</svg>
