<?xml version="1.0" encoding="utf-8"?>
<!-- Generator: Adobe Illustrator 18.1.1, SVG Export Plug-In . SVG Version: 6.00 Build 0)  -->
<svg version="1.1" id="Layer_1" xmlns="http://www.w3.org/2000/svg" xmlns:xlink="http://www.w3.org/1999/xlink" x="0px" y="0px"
	 viewBox="-1012.9 772.5 30.3 52.7" enable-background="new -1012.9 772.5 30.3 52.7" xml:space="preserve">
<path d="M-1001,807.5c0-0.4-0.3-0.7-0.7-0.7s-0.7,0.3-0.7,0.7c0,2.5,2.1,4.6,4.6,4.6s4.6-2.1,4.6-4.6c0-0.4-0.3-0.7-0.7-0.7
	s-0.7,0.3-0.7,0.7c0,1.8-1.5,3.3-3.3,3.3C-999.5,810.8-1001,809.3-1001,807.5z"/>
<path d="M-1003,802.8h-2.6c-0.4,0-0.7,0.3-0.7,0.7s0.3,0.7,0.7,0.7h2.6c0.4,0,0.7-0.3,0.7-0.7S-1002.6,802.8-1003,802.8z"/>
<path d="M-992.5,804.2h2.6c0.4,0,0.7-0.3,0.7-0.7s-0.3-0.7-0.7-0.7h-2.6c-0.4,0-0.7,0.3-0.7,0.7S-992.8,804.2-992.5,804.2z"/>
<path d="M-997.7,772.5c-7.3,0-15.2,2.1-15.2,5.9v7.9c0,1,0.5,1.8,1.3,2.6c0,0,0,0.1,0,0.1v30.3c0,3.3,6.1,5.9,13.8,5.9
	s13.8-2.6,13.8-5.9V789c0,0,0-0.1,0-0.1c0.8-0.7,1.3-1.6,1.3-2.6v-7.9C-982.6,774.6-990.4,772.5-997.7,772.5z M-1011.6,781
	c2.5,2.2,8.3,3.4,13.8,3.4c2,0,4-0.2,5.9-0.5v6.6c-1.8,0.3-3.8,0.5-5.9,0.5c-8.2,0-13.8-2.4-13.8-4.6V781z M-985.2,811.4
	c0,2.2-5.1,4.6-12.5,4.6c-7.4,0-12.5-2.4-12.5-4.6v-17.2c2.2,2,6.9,3.4,12.5,3.4c5.6,0,10.3-1.4,12.5-3.4V811.4z M-985.2,791.6
	c0,2.2-5.1,4.6-12.5,4.6c-7.4,0-12.5-2.4-12.5-4.6v-1.8c2.9,1.6,7.8,2.5,12.5,2.5c4.7,0,9.6-0.9,12.5-2.5V791.6z M-987.8,789.5V783
	c0.5-0.1,0.9-0.3,1.3-0.5v6.4C-986.9,789.2-987.4,789.4-987.8,789.5z M-989.2,789.9c-0.4,0.1-0.9,0.2-1.3,0.3v-6.6
	c0.5-0.1,0.9-0.2,1.3-0.3V789.9z M-997.7,823.9c-7.4,0-12.5-2.4-12.5-4.6V814c2.2,2,6.9,3.4,12.5,3.4c5.6,0,10.3-1.4,12.5-3.4v5.4
	C-985.2,821.5-990.3,823.9-997.7,823.9z M-983.9,786.4c0,0.6-0.5,1.3-1.3,1.9v-6.3c0.5-0.3,0.9-0.6,1.3-0.9V786.4z M-986.1,780.9
	C-986.1,780.9-986.1,780.9-986.1,780.9c-2.4,1.2-6.5,2.2-11.6,2.2c-8.2,0-13.8-2.4-13.8-4.6s5.7-4.6,13.8-4.6
	c8.2,0,13.8,2.4,13.8,4.6C-983.9,779.3-984.7,780.1-986.1,780.9z"/>
</svg>
