<?xml version="1.0" encoding="utf-8"?>
<!-- Generator: Adobe Illustrator 18.1.1, SVG Export Plug-In . SVG Version: 6.00 Build 0)  -->
<svg version="1.1" id="Layer_1" xmlns="http://www.w3.org/2000/svg" xmlns:xlink="http://www.w3.org/1999/xlink" x="0px" y="0px"
	 viewBox="-1316.4 926.4 105.4 105.6" enable-background="new -1316.4 926.4 105.4 105.6" xml:space="preserve">
<g>
	<g>
		<path fill="#103A5C" d="M-1281,986.1c-0.4-0.2-1.3-0.6-2.6-0.6c-1.6,0-2.8,0.8-2.8,2.6c0,2.8,3.4,3.3,5.5,5
			c1.4,1.2,2.1,2.4,2.1,4.1c0,3.2-2.4,5.1-5.6,5.1c-1.3,0-3.3-0.4-4.6-1.2c-0.2-0.1-0.3-0.3-0.3-0.6v-3c0-0.2,0.1-0.3,0.3-0.3h1.2
			c0.2,0,0.3,0.1,0.3,0.3v2.2c0.3,0.1,1.7,0.8,3.2,0.8c2,0,3.1-1.2,3.1-3c0-2.2-1.9-3.1-3.8-4.1c-1.9-1.1-3.8-2.3-3.8-5
			c0-3,2.5-4.7,5.2-4.7c2.1,0,3.8,0.8,4.1,1.1c0.1,0.1,0.2,0.3,0.2,0.6v2.9c0,0.2-0.1,0.3-0.3,0.3h-1.2c-0.2,0-0.3-0.1-0.3-0.3
			V986.1z"/>
		<path fill="#103A5C" d="M-1263,1001.7c0,0.2-0.1,0.3-0.3,0.3h-5.3c-0.2,0-0.3-0.1-0.3-0.3v-1.1c0-0.2,0.1-0.3,0.3-0.3h1.6l-1-3.6
			h-5.4l-1,3.6h1.7c0.2,0,0.3,0.1,0.3,0.3v1.1c0,0.2-0.1,0.3-0.3,0.3h-5.3c-0.2,0-0.3-0.1-0.3-0.3v-1.1c0-0.2,0.1-0.3,0.3-0.3h1.3
			l4.9-16c0.1-0.3,0.1-0.3,0.4-0.3h1.5c0.2,0,0.3,0,0.4,0.3l4.9,16h1.3c0.2,0,0.3,0.1,0.3,0.3V1001.7z M-1270.1,989
			c-0.2-0.8-0.5-1.8-0.6-2.5h-0.1c-0.1,0.6-0.4,1.8-0.6,2.5l-1.6,5.8h4.4L-1270.1,989z"/>
		<path fill="#103A5C" d="M-1255.5,1000.3c0.2,0,0.3,0.1,0.3,0.3v1.1c0,0.2-0.1,0.3-0.3,0.3h-5.7c-0.2,0-0.3-0.1-0.3-0.3v-1.1
			c0-0.2,0.1-0.3,0.3-0.3h1.7v-14.6h-1.7c-0.2,0-0.3-0.1-0.3-0.3v-1.1c0-0.2,0.1-0.3,0.3-0.3h9.9c0.3,0,0.3,0.1,0.3,0.4v3.6
			c0,0.2-0.1,0.3-0.3,0.3h-1.2c-0.2,0-0.3-0.1-0.3-0.3v-2.1h-4.6v6h5.1c0.3,0,0.3,0.1,0.3,0.3v1.2c0,0.3-0.1,0.3-0.3,0.3h-5.1v6.6
			H-1255.5z"/>
		<path fill="#103A5C" d="M-1238.7,1001.7c0,0.3-0.1,0.4-0.4,0.4h-10c-0.2,0-0.3-0.1-0.3-0.3v-1.1c0-0.2,0.1-0.3,0.3-0.3h1.7v-14.6
			h-1.7c-0.2,0-0.3-0.1-0.3-0.3v-1.1c0-0.2,0.1-0.3,0.3-0.3h9.9c0.3,0,0.3,0.1,0.3,0.4v3.6c0,0.2-0.1,0.3-0.3,0.3h-1.2
			c-0.2,0-0.3-0.1-0.3-0.3v-2.1h-4.6v5.8h5.1c0.3,0,0.3,0.1,0.3,0.3v1.2c0,0.3-0.1,0.3-0.3,0.3h-5.1v6.6h4.8v-2.4
			c0-0.2,0.1-0.3,0.3-0.3h1.2c0.2,0,0.3,0.1,0.3,0.3V1001.7z"/>
	</g>
	<path fill="#FFFFFF" d="M-1277.3,937.9v6.6l1.7,2.3l-0.6,26.5c0,0,0.5,5.2,13.1,5.3c0,0,10.1-0.5,11-5.1v-26.8l1.2-2.2v-7.6
		c0,0-2.6-4.7-13-4.1C-1274.2,933.4-1276.2,933.6-1277.3,937.9z"/>
	<g>
		<path fill="#103A5C" d="M-1282.6,1026l-3.3-16.5h-0.1c0.1,1.3,0.2,2.4,0.2,3.5v13h-3v-19.4h4.9l2.9,15.2h0.1l2.9-15.2h5v19.4h-3
			v-13.1c0-1.1,0.1-2.2,0.2-3.3h-0.1l-3.3,16.5H-1282.6z"/>
		<path fill="#103A5C" d="M-1262.1,1026h-7.8v-19.4h7.8v3.1h-4.6v4.6h4.2v3.1h-4.2v5.4h4.6V1026z"/>
		<path fill="#103A5C" d="M-1248.6,1016.1c0,3.2-0.6,5.6-1.7,7.3c-1.2,1.7-2.8,2.5-5,2.5h-4.2v-19.4h4.6c2,0,3.6,0.8,4.7,2.5
			C-1249.1,1010.7-1248.6,1013.1-1248.6,1016.1z M-1251.9,1016.2c0-4.3-1.1-6.5-3.2-6.5h-1.3v13.1h1c1.2,0,2-0.6,2.6-1.7
			C-1252.1,1020.1-1251.9,1018.4-1251.9,1016.2z"/>
		<path fill="#103A5C" d="M-1238.2,1020.6c0,1.8-0.4,3.2-1.2,4.2c-0.8,1-2,1.4-3.5,1.4c-1.5,0-2.8-0.3-3.8-1v-3.6
			c1.3,0.9,2.5,1.4,3.5,1.4c0.6,0,1.1-0.2,1.4-0.6c0.3-0.4,0.5-0.9,0.5-1.6c0-0.6-0.2-1.2-0.6-1.8c-0.4-0.5-1-1.1-1.8-1.8
			c-0.7-0.6-1.3-1.1-1.7-1.7c-0.4-0.5-0.7-1.1-0.9-1.8c-0.2-0.7-0.3-1.4-0.3-2.3c0-1.7,0.4-3,1.2-4c0.8-1,1.9-1.5,3.3-1.5
			c1.3,0,2.6,0.4,3.8,1.2l-1.1,2.9c-0.4-0.2-0.8-0.5-1.2-0.7c-0.4-0.2-0.9-0.3-1.3-0.3c-0.5,0-0.9,0.2-1.2,0.6
			c-0.3,0.4-0.4,0.9-0.4,1.6c0,0.7,0.2,1.2,0.5,1.7c0.3,0.5,0.9,1,1.7,1.7c1.1,0.8,1.9,1.7,2.4,2.6
			C-1238.4,1018.5-1238.2,1019.5-1238.2,1020.6z"/>
	</g>
	<g>
		<path fill="#103A5C" d="M-1266.8,963.3c0-0.3-0.3-0.6-0.6-0.6s-0.6,0.3-0.6,0.6c0,2.3,1.8,4.1,4.1,4.1c2.3,0,4.1-1.8,4.1-4.1
			c0-0.3-0.3-0.6-0.6-0.6s-0.6,0.3-0.6,0.6c0,1.6-1.3,2.9-2.9,2.9S-1266.8,964.9-1266.8,963.3z"/>
		<path fill="#103A5C" d="M-1268.5,959.2h-2.3c-0.3,0-0.6,0.3-0.6,0.6s0.3,0.6,0.6,0.6h2.3c0.3,0,0.6-0.3,0.6-0.6
			S-1268.2,959.2-1268.5,959.2z"/>
		<path fill="#103A5C" d="M-1259.1,960.4h2.3c0.3,0,0.6-0.3,0.6-0.6c0-0.3-0.3-0.6-0.6-0.6h-2.3c-0.3,0-0.6,0.3-0.6,0.6
			C-1259.7,960.1-1259.5,960.4-1259.1,960.4z"/>
		<path fill="#103A5C" d="M-1263.8,932.2c-6.5,0-13.5,1.9-13.5,5.3v7c0,0.9,0.4,1.6,1.2,2.3c0,0,0,0,0,0.1v27c0,3,5.4,5.3,12.3,5.3
			s12.3-2.3,12.3-5.3v-27c0,0,0,0,0-0.1c0.8-0.7,1.2-1.4,1.2-2.3v-7C-1250.3,934.1-1257.3,932.2-1263.8,932.2z M-1276.1,939.7
			c2.3,2,7.4,3,12.3,3c1.8,0,3.6-0.1,5.3-0.4v5.9c-1.6,0.3-3.3,0.4-5.3,0.4c-7.3,0-12.3-2.2-12.3-4.1V939.7z M-1252.7,966.8
			c0,1.9-4.6,4.1-11.1,4.1c-6.6,0-11.1-2.2-11.1-4.1v-15.3c1.9,1.8,6.1,3,11.1,3c5,0,9.2-1.2,11.1-3V966.8z M-1252.7,949.2
			c0,1.9-4.6,4.1-11.1,4.1c-6.6,0-11.1-2.2-11.1-4.1v-1.6c2.6,1.5,6.9,2.2,11.1,2.2c4.2,0,8.6-0.8,11.1-2.2V949.2z M-1255,947.3
			v-5.8c0.4-0.1,0.8-0.3,1.2-0.4v5.7C-1254.2,947-1254.6,947.2-1255,947.3z M-1256.2,947.7c-0.4,0.1-0.8,0.2-1.2,0.3v-5.8
			c0.4-0.1,0.8-0.2,1.2-0.3V947.7z M-1263.8,978c-6.6,0-11.1-2.2-11.1-4.1v-4.8c1.9,1.8,6.1,3,11.1,3c5,0,9.2-1.2,11.1-3v4.8
			C-1252.7,975.8-1257.3,978-1263.8,978z M-1251.5,944.5c0,0.6-0.4,1.1-1.2,1.7v-5.6c0.4-0.2,0.8-0.5,1.2-0.8V944.5z M-1253.5,939.6
			C-1253.5,939.6-1253.5,939.6-1253.5,939.6c-2.1,1.1-5.8,2-10.3,2c-7.3,0-12.3-2.2-12.3-4.1c0-1.9,5.1-4.1,12.3-4.1
			c7.3,0,12.3,2.2,12.3,4.1C-1251.5,938.2-1252.2,939-1253.5,939.6z"/>
	</g>
</g>
</svg>
