<?xml version="1.0" encoding="utf-8"?>
<!-- Generator: Adobe Illustrator 18.1.1, SVG Export Plug-In . SVG Version: 6.00 Build 0)  -->
<svg version="1.1" id="Layer_1" xmlns="http://www.w3.org/2000/svg" xmlns:xlink="http://www.w3.org/1999/xlink" x="0px" y="0px"
	 viewBox="-1316.4 757.2 105.4 105.6" enable-background="new -1316.4 757.2 105.4 105.6" xml:space="preserve">
<g>
	<path d="M-1277.7,812.9c-0.3-0.1-1.1-0.5-2.2-0.5c-1.3,0-2.4,0.7-2.4,2.2c0,2.3,2.9,2.8,4.7,4.2c1.2,1,1.8,2,1.8,3.5
		c0,2.7-2,4.4-4.7,4.4c-1.1,0-2.8-0.3-3.9-1c-0.2-0.1-0.2-0.2-0.2-0.5v-2.6c0-0.2,0.1-0.3,0.3-0.3h1c0.2,0,0.2,0.1,0.2,0.3v1.8
		c0.2,0.1,1.5,0.6,2.7,0.6c1.7,0,2.6-1,2.6-2.5c0-1.8-1.6-2.6-3.2-3.5c-1.6-0.9-3.2-1.9-3.2-4.2c0-2.6,2.1-4,4.4-4
		c1.8,0,3.2,0.7,3.5,1c0.1,0.1,0.1,0.2,0.1,0.5v2.4c0,0.2-0.1,0.3-0.3,0.3h-1c-0.2,0-0.2-0.1-0.2-0.3V812.9z"/>
	<path d="M-1262.4,826.1c0,0.2-0.1,0.3-0.3,0.3h-4.5c-0.2,0-0.3-0.1-0.3-0.3v-0.9c0-0.2,0.1-0.3,0.3-0.3h1.4l-0.9-3.1h-4.6l-0.8,3.1
		h1.4c0.2,0,0.3,0.1,0.3,0.3v0.9c0,0.2-0.1,0.3-0.3,0.3h-4.5c-0.2,0-0.3-0.1-0.3-0.3v-0.9c0-0.2,0.1-0.3,0.3-0.3h1.1l4.1-13.5
		c0.1-0.2,0.1-0.2,0.3-0.2h1.3c0.2,0,0.2,0,0.3,0.2l4.1,13.5h1.1c0.2,0,0.3,0.1,0.3,0.3V826.1z M-1268.4,815.3
		c-0.2-0.7-0.4-1.5-0.5-2.1h0c-0.1,0.5-0.3,1.5-0.5,2.1l-1.4,4.9h3.7L-1268.4,815.3z"/>
	<path d="M-1256.1,824.9c0.2,0,0.3,0.1,0.3,0.3v0.9c0,0.2-0.1,0.3-0.3,0.3h-4.9c-0.2,0-0.3-0.1-0.3-0.3v-0.9c0-0.2,0.1-0.3,0.3-0.3
		h1.4v-12.3h-1.4c-0.2,0-0.3-0.1-0.3-0.3v-0.9c0-0.2,0.1-0.3,0.3-0.3h8.4c0.2,0,0.3,0.1,0.3,0.3v3c0,0.2-0.1,0.3-0.2,0.3h-1
		c-0.2,0-0.2-0.1-0.2-0.3v-1.8h-3.9v5.1h4.4c0.2,0,0.3,0,0.3,0.3v1c0,0.2,0,0.3-0.3,0.3h-4.4v5.6H-1256.1z"/>
	<path d="M-1241.8,826.1c0,0.3-0.1,0.3-0.3,0.3h-8.5c-0.2,0-0.3-0.1-0.3-0.3v-0.9c0-0.2,0.1-0.3,0.3-0.3h1.4v-12.3h-1.4
		c-0.2,0-0.3-0.1-0.3-0.3v-0.9c0-0.2,0.1-0.3,0.3-0.3h8.4c0.2,0,0.3,0.1,0.3,0.3v3c0,0.2-0.1,0.3-0.2,0.3h-1c-0.2,0-0.2-0.1-0.2-0.3
		v-1.8h-3.9v4.9h4.4c0.2,0,0.3,0,0.3,0.3v1c0,0.2,0,0.3-0.3,0.3h-4.4v5.6h4.1v-2c0-0.2,0.1-0.2,0.2-0.2h1c0.2,0,0.3,0.1,0.3,0.2
		V826.1z"/>
</g>
<path fill="#FFFFFF" d="M-1274.5,772v5.6l1.5,2l-0.5,22.5c0,0,0.4,4.4,11.1,4.5c0,0,8.5-0.4,9.3-4.4v-22.8l1-1.9v-6.5
	c0,0-2.2-4-11-3.5C-1271.9,768.2-1273.6,768.3-1274.5,772z"/>
<g>
	<path d="M-1279,846.7l-2.8-14h-0.1c0.1,1.1,0.2,2.1,0.2,3v11h-2.5v-16.4h4.2l2.5,12.9h0.1l2.5-12.9h4.2v16.4h-2.6v-11.1
		c0-0.9,0-1.9,0.1-2.8h-0.1l-2.8,14H-1279z"/>
	<path d="M-1261.6,846.7h-6.6v-16.4h6.6v2.6h-3.9v3.9h3.6v2.7h-3.6v4.6h3.9V846.7z"/>
	<path d="M-1250.2,838.3c0,2.7-0.5,4.8-1.5,6.2c-1,1.4-2.4,2.2-4.2,2.2h-3.6v-16.4h3.9c1.7,0,3,0.7,4,2.1
		C-1250.6,833.8-1250.2,835.7-1250.2,838.3z M-1253,838.4c0-3.7-0.9-5.5-2.7-5.5h-1.1V844h0.9c1,0,1.7-0.5,2.2-1.4
		C-1253.2,841.7-1253,840.2-1253,838.4z"/>
	<path d="M-1241.4,842.1c0,1.5-0.3,2.7-1,3.5c-0.7,0.8-1.7,1.2-3,1.2c-1.3,0-2.4-0.3-3.2-0.8v-3c1.1,0.8,2.1,1.2,3,1.2
		c0.5,0,0.9-0.2,1.2-0.5c0.3-0.3,0.4-0.8,0.4-1.3c0-0.5-0.2-1-0.5-1.5c-0.3-0.5-0.8-1-1.5-1.5c-0.6-0.5-1.1-1-1.4-1.4
		c-0.3-0.4-0.6-0.9-0.7-1.5c-0.2-0.6-0.3-1.2-0.3-1.9c0-1.4,0.3-2.5,1-3.4c0.7-0.8,1.6-1.2,2.8-1.2c1.1,0,2.2,0.4,3.2,1.1l-0.9,2.5
		c-0.3-0.2-0.7-0.4-1-0.6c-0.3-0.2-0.7-0.2-1.1-0.2c-0.4,0-0.8,0.2-1,0.5s-0.4,0.8-0.4,1.3c0,0.6,0.1,1,0.4,1.5
		c0.3,0.4,0.8,0.9,1.5,1.4c1,0.7,1.6,1.5,2,2.2C-1241.6,840.3-1241.4,841.2-1241.4,842.1z"/>
</g>
<path d="M-1265.6,793.5c0-0.3-0.2-0.5-0.5-0.5c-0.3,0-0.5,0.2-0.5,0.5c0,1.9,1.6,3.5,3.5,3.5s3.5-1.6,3.5-3.5c0-0.3-0.2-0.5-0.5-0.5
	c-0.3,0-0.5,0.2-0.5,0.5c0,1.4-1.1,2.5-2.5,2.5C-1264.5,796-1265.6,794.9-1265.6,793.5z"/>
<path d="M-1267.1,790h-2c-0.3,0-0.5,0.2-0.5,0.5s0.2,0.5,0.5,0.5h2c0.3,0,0.5-0.2,0.5-0.5S-1266.8,790-1267.1,790z"/>
<path d="M-1259.1,791h2c0.3,0,0.5-0.2,0.5-0.5c0-0.3-0.2-0.5-0.5-0.5h-2c-0.3,0-0.5,0.2-0.5,0.5
	C-1259.6,790.8-1259.4,791-1259.1,791z"/>
<path d="M-1263.1,767.1c-5.5,0-11.4,1.6-11.4,4.5v6c0,0.7,0.4,1.4,1,1.9c0,0,0,0,0,0.1v22.9c0,2.5,4.6,4.5,10.4,4.5s10.4-2,10.4-4.5
	v-22.9c0,0,0,0,0-0.1c0.6-0.6,1-1.2,1-1.9v-6C-1251.7,768.7-1257.6,767.1-1263.1,767.1z M-1273.6,773.5c1.9,1.7,6.3,2.6,10.4,2.6
	c1.5,0,3-0.1,4.5-0.3v5c-1.3,0.2-2.8,0.4-4.5,0.4c-6.2,0-10.4-1.8-10.4-3.5V773.5z M-1253.7,796.5c0,1.6-3.9,3.5-9.5,3.5
	s-9.5-1.8-9.5-3.5v-13c1.7,1.5,5.2,2.6,9.5,2.6s7.8-1,9.5-2.6V796.5z M-1253.7,781.6c0,1.6-3.9,3.5-9.5,3.5s-9.5-1.8-9.5-3.5v-1.4
	c2.2,1.2,5.9,1.9,9.5,1.9s7.3-0.7,9.5-1.9V781.6z M-1255.6,780v-4.9c0.3-0.1,0.7-0.2,1-0.4v4.9C-1255,779.7-1255.3,779.8-1255.6,780
	z M-1256.6,780.3c-0.3,0.1-0.6,0.2-1,0.2v-5c0.3-0.1,0.7-0.1,1-0.2V780.3z M-1263.1,805.9c-5.6,0-9.5-1.8-9.5-3.5v-4
	c1.7,1.5,5.2,2.6,9.5,2.6s7.8-1,9.5-2.6v4C-1253.7,804.1-1257.5,805.9-1263.1,805.9z M-1252.7,777.6c0,0.5-0.4,1-1,1.4v-4.8
	c0.4-0.2,0.7-0.4,1-0.7V777.6z M-1254.3,773.4C-1254.3,773.4-1254.3,773.4-1254.3,773.4c-1.8,0.9-4.9,1.7-8.8,1.7
	c-6.2,0-10.4-1.8-10.4-3.5c0-1.6,4.3-3.5,10.4-3.5s10.4,1.8,10.4,3.5C-1252.7,772.2-1253.3,772.9-1254.3,773.4z"/>
</svg>
