<?xml version="1.0" encoding="utf-8"?>
<!-- Generator: Adobe Illustrator 18.1.1, SVG Export Plug-In . SVG Version: 6.00 Build 0)  -->
<svg version="1.1" id="Layer_1" xmlns="http://www.w3.org/2000/svg" xmlns:xlink="http://www.w3.org/1999/xlink" x="0px" y="0px"
	 viewBox="1618 1899 80 79" enable-background="new 1618 1899 80 79" xml:space="preserve">
<path fill="#FFFFFF" d="M1663.5,1905.7c16-10.1,25.9,1.3,25.9,1.3c12.3,14.2,0.9,27.2,0.9,27.2l-32.5,32.4
	c-9,10.7-19.7,8.2-19.7,8.2c-17.7-3.8-16.2-19.8-16.2-19.8c0-4.2,2.4-9.7,5.4-12.7l18.6-18.4L1663.5,1905.7z"/>
<g>
	<path fill="#103A5C" d="M1690.9,1905.8c-4-4-9.2-6.1-14.8-6.1c-5.6,0-10.9,2.2-14.8,6.1l-18.5,18.5L1626,1941
		c-4,4-6.1,9.2-6.2,14.8c0,5.6,2.2,10.9,6.1,14.8c4,4,9.2,6.1,14.8,6.1h0c5.6,0,10.9-2.2,14.8-6.1l15.8-15.8l0,0l19.4-19.4
		C1699.1,1927.3,1699.1,1914,1690.9,1905.8z M1663.5,1905.6c16-10.1,25.9,1.3,25.9,1.3c12.3,14.2,0.9,27.2,0.9,27.2l-32.5,32.4
		c-9,10.7-19.7,8.2-19.7,8.2c-17.7-3.8-16.2-19.8-16.2-19.8c0-4.2,2.4-9.7,5.4-12.7l18.6-18.4L1663.5,1905.6z M1640.8,1971.7"/>
	<path fill="#103A5C" d="M1646,1922.6c0,0,28.4,2.5,28.9,27.5l-1.3,0.7c-0.6-25-29.2-26.9-29.2-26.9"/>
	<g>
		<defs>
			<path id="SVGID_3_" d="M1689.5,1936.1c3.2-3.9,5.7-10,5.7-10c2.6-15.7-5.7-20.6-5.7-20.6c-11.2-11.4-27.5,0-27.5,0l-17.6,17.7
				c0,0,29.4,2.8,29.7,27.3L1689.5,1936.1z"/>
		</defs>
		<clipPath id="SVGID_2_">
			<use xlink:href="#SVGID_3_"  overflow="visible"/>
		</clipPath>
		<g clip-path="url(#SVGID_2_)">
			<rect x="1615.6" y="1895.4" fill="none" width="85.7" height="85.7"/>
			<rect x="1648.3" y="1884.6" fill="#103A5C" width="1" height="83"/>
			<rect x="1651.5" y="1884.6" fill="#103A5C" width="1" height="83"/>
			<rect x="1654.7" y="1884.6" fill="#103A5C" width="1" height="83"/>
			<rect x="1657.8" y="1884.6" fill="#103A5C" width="1" height="83"/>
			<rect x="1661" y="1884.6" fill="#103A5C" width="1" height="83"/>
			<rect x="1664.2" y="1884.6" fill="#103A5C" width="1" height="83"/>
			<rect x="1667.4" y="1884.6" fill="#103A5C" width="1" height="83"/>
			<rect x="1670.5" y="1884.6" fill="#103A5C" width="1" height="83"/>
			<rect x="1673.7" y="1884.6" fill="#103A5C" width="1" height="83"/>
			<rect x="1676.9" y="1884.6" fill="#103A5C" width="1" height="83"/>
			<rect x="1680" y="1884.6" fill="#103A5C" width="1" height="83"/>
			<rect x="1683.2" y="1884.6" fill="#103A5C" width="1" height="83"/>
			<rect x="1686.4" y="1884.6" fill="#103A5C" width="1" height="83"/>
			<rect x="1689.5" y="1884.6" fill="#103A5C" width="1" height="83"/>
			<rect x="1692.7" y="1884.6" fill="#103A5C" width="1" height="83"/>
			<rect x="1695.9" y="1884.6" fill="#103A5C" width="1" height="83"/>
		</g>
	</g>
</g>
</svg>
