<?xml version="1.0" encoding="utf-8"?>
<!-- Generator: Adobe Illustrator 18.1.1, SVG Export Plug-In . SVG Version: 6.00 Build 0)  -->
<svg version="1.1" id="Layer_1" xmlns="http://www.w3.org/2000/svg" xmlns:xlink="http://www.w3.org/1999/xlink" x="0px" y="0px"
	 viewBox="-1607.6 1191.7 110 110" enable-background="new -1607.6 1191.7 110 110" xml:space="preserve">
<path fill="#103A5C" d="M-1506.4,1200.4c-5.6-5.6-13.2-8.8-21.1-8.8c-8,0-15.5,3.1-21.1,8.8l-26.4,26.4l-23.8,23.7
	c-5.7,5.6-8.8,13.2-8.8,21.1c0,8,3.1,15.5,8.8,21.1c5.6,5.6,13.2,8.8,21.1,8.8h0c8,0,15.5-3.1,21.1-8.7l22.5-22.6l0,0l27.6-27.6
	C-1494.8,1231-1494.8,1212.1-1506.4,1200.4z M-1545.5,1200.1c22.8-14.4,36.9,1.8,36.9,1.8c17.5,20.3,1.3,38.7,1.3,38.7l-46.4,46.3
	c-12.9,15.3-28,11.7-28,11.7c-25.2-5.5-23.1-28.3-23.1-28.3c0-6,3.4-13.9,7.7-18.1l26.5-26.3L-1545.5,1200.1z M-1577.7,1294.4"/>
<path fill="#103A5C" d="M-1570.4,1224.4c0,0,40.4,3.6,41.2,39.2l-1.8,1c-0.8-35.6-41.6-38.3-41.6-38.3"/>
<g>
	<defs>
		<path id="SVGID_3_" d="M-1508.3,1243.6c4.5-5.5,8.2-14.2,8.2-14.2c3.7-22.4-8.2-29.4-8.2-29.4c-15.9-16.2-39.2,0-39.2,0l-25,25.2
			c0,0,41.9,4,42.4,39L-1508.3,1243.6z"/>
	</defs>
	<clipPath id="SVGID_2_">
		<use xlink:href="#SVGID_3_"  overflow="visible"/>
	</clipPath>
	<g clip-path="url(#SVGID_2_)">
		<rect x="-1613.8" y="1185.6" fill="none" width="122.2" height="122.2"/>
		<rect x="-1567.1" y="1170.2" fill="#103A5C" width="1.4" height="118.3"/>
		<rect x="-1562.5" y="1170.2" fill="#103A5C" width="1.4" height="118.3"/>
		<rect x="-1558" y="1170.2" fill="#103A5C" width="1.4" height="118.3"/>
		<rect x="-1553.5" y="1170.2" fill="#103A5C" width="1.4" height="118.3"/>
		<rect x="-1549" y="1170.2" fill="#103A5C" width="1.4" height="118.3"/>
		<rect x="-1544.5" y="1170.2" fill="#103A5C" width="1.4" height="118.3"/>
		<rect x="-1540" y="1170.2" fill="#103A5C" width="1.4" height="118.3"/>
		<rect x="-1535.4" y="1170.2" fill="#103A5C" width="1.4" height="118.3"/>
		<rect x="-1530.9" y="1170.2" fill="#103A5C" width="1.4" height="118.3"/>
		<rect x="-1526.4" y="1170.2" fill="#103A5C" width="1.4" height="118.3"/>
		<rect x="-1521.9" y="1170.2" fill="#103A5C" width="1.4" height="118.3"/>
		<rect x="-1517.4" y="1170.2" fill="#103A5C" width="1.4" height="118.3"/>
		<rect x="-1512.8" y="1170.2" fill="#103A5C" width="1.4" height="118.3"/>
		<rect x="-1508.3" y="1170.2" fill="#103A5C" width="1.4" height="118.3"/>
		<rect x="-1503.8" y="1170.2" fill="#103A5C" width="1.4" height="118.3"/>
		<rect x="-1499.3" y="1170.2" fill="#103A5C" width="1.4" height="118.3"/>
	</g>
</g>
<path fill="#103A5C" d="M-1506.9,1232.7l-55.5,56.6c-2.5,3.6-9.3,4.7-13.4,4.7c-4.1,0-8-1-10.9-3.9c-0.7-0.7-1.1-2-1.8-1.3
	c-0.7,0.7-0.6,0.7,0.1,1.4c3.6,3.6,7.1,5.1,12.2,5.1c5.1,0,11.2-1.4,14.8-5l56.2-56.9"/>
</svg>
