<?xml version="1.0" encoding="utf-8"?>
<!-- Generator: Adobe Illustrator 18.1.1, SVG Export Plug-In . SVG Version: 6.00 Build 0)  -->
<svg version="1.1" id="Layer_1" xmlns="http://www.w3.org/2000/svg" xmlns:xlink="http://www.w3.org/1999/xlink" x="0px" y="0px"
	 viewBox="-1783.6 1176.9 76.9 117.4" enable-background="new -1783.6 1176.9 76.9 117.4" xml:space="preserve">
<g>
	<g>
		<path fill="#103A5C" d="M-1783.5,1226.4c0-2.4,1.3-5.5,3-7.2l9.3-9.2c1.4-1.4,2.4-3.5,2.4-4.5v-2.5h1.9v2.5c0,1.8-1.5,4.4-3,5.8
			l-9.3,9.2c-1.3,1.3-2.4,4-2.4,5.8"/>
	</g>
	<g>
		<path fill="#103A5C" d="M-1711.4,1294.3h-38.3v-1.9h38.3c1.6,0,2.9-1.3,2.9-2.9v-63.2c0-1.9-1.1-4.5-2.4-5.8l-9.3-9.2
			c-1.7-1.7-3-4.2-3-5.8v-2.5h1.9v2.5c0,1,1,3,2.4,4.5l9.3,9.2c1.7,1.7,3,4.8,3,7.2v63.1
			C-1706.7,1292.2-1708.8,1294.3-1711.4,1294.3z"/>
	</g>
</g>
<g>
	<path fill="#103A5C" d="M-1723.7,1204h-42.7c-2.6,0-4.8-2.2-4.8-4.8v-17.5c0-2.6,2.1-4.8,4.8-4.8h42.7c2.6,0,4.8,2.2,4.8,4.8v17.5
		C-1718.9,1201.8-1721.1,1204-1723.7,1204z M-1766.5,1178.8c-1.6,0-2.9,1.3-2.9,2.9v17.5c0,1.6,1.3,2.9,2.9,2.9h42.7
		c1.6,0,2.9-1.3,2.9-2.9v-17.5c0-1.6-1.3-2.9-2.9-2.9H-1766.5z"/>
</g>
<g>
	<g>
		<rect x="-1765.9" y="1177.8" fill="#103A5C" width="1.9" height="18.9"/>
	</g>
	<g>
		<rect x="-1760.9" y="1177.8" fill="#103A5C" width="1.9" height="18.9"/>
	</g>
	<g>
		<rect x="-1756" y="1177.8" fill="#103A5C" width="1.9" height="18.9"/>
	</g>
	<g>
		<rect x="-1751" y="1177.8" fill="#103A5C" width="1.9" height="18.9"/>
	</g>
	<g>
		<rect x="-1746.1" y="1177.8" fill="#103A5C" width="1.9" height="18.9"/>
	</g>
	<g>
		<rect x="-1741.1" y="1177.8" fill="#103A5C" width="1.9" height="18.9"/>
	</g>
	<g>
		<rect x="-1736.2" y="1177.8" fill="#103A5C" width="1.9" height="18.9"/>
	</g>
	<g>
		<rect x="-1731.2" y="1177.8" fill="#103A5C" width="1.9" height="18.9"/>
	</g>
	<g>
		<rect x="-1726.3" y="1177.8" fill="#103A5C" width="1.9" height="18.9"/>
	</g>
</g>
<g>
	<rect x="-1770.3" y="1195.7" fill="#103A5C" width="50.4" height="1.9"/>
</g>
<g>
	<path fill="#103A5C" d="M-1762.9,1272.1l-1.9-0.1v-39.3c0-2.6,2.1-4.8,4.8-4.8h52.4v1.9h-52.4c-1.6,0-2.9,1.3-2.9,2.9v39.3V1272.1z
		"/>
	<path fill="#103A5C" d="M-1707.6,1276.4h-52.4c-2.6,0-4.8-2.2-4.8-4.8v-39.4h1.9l0,0v39.4c0,1.6,1.3,2.9,2.9,2.9h52.4"/>
</g>
<path fill="#103A5C" d="M-1779.2,1220.5c-1.3,1.3-2.4,4-2.4,5.8v63.2c0,1.6,1.3,2.9,2.9,2.9h38.3v1.9h-38.3c-2.6,0-4.8-2.1-4.8-4.8
	v-63.1c0-2.4,1.3-5.5,3-7.2"/>
</svg>
