<?xml version="1.0" encoding="utf-8"?>
<!-- Generator: Adobe Illustrator 18.1.1, SVG Export Plug-In . SVG Version: 6.00 Build 0)  -->
<svg version="1.1" id="Layer_1" xmlns="http://www.w3.org/2000/svg" xmlns:xlink="http://www.w3.org/1999/xlink" x="0px" y="0px"
	 viewBox="1133 1897 104 87" enable-background="new 1133 1897 104 87" xml:space="preserve">
<g>
	<g>
		<path fill="#FFFFFF" d="M1178.7,1923.7l-5.7-5.7c-0.9-0.9-1.5-2.1-1.5-2.7v-1.3c0.2-0.1,0.3-0.2,0.4-0.3c0.1-0.1,0.2-0.2,0.3-0.3
			c0,0,0.1-0.1,0.1-0.1c0.2-0.2,0.3-0.4,0.4-0.6c0-0.1,0.1-0.2,0.1-0.3c0-0.1,0.1-0.2,0.1-0.3c0.1-0.2,0.1-0.5,0.1-0.7v-10.8
			c0-1.6-1.3-2.9-2.9-2.9h-26.2c-1.6,0-2.9,1.3-2.9,2.9v10.8c0,1.1,0.6,2.1,1.5,2.6v1.3c0,0.6-0.6,1.9-1.5,2.7l-5.7,5.7
			c-1,1-1.9,3-1.9,4.4l0,38.8c0,1.6,1.3,2.9,2.9,2.9h17.8l0,0h23.5c1.6,0,2.9-1.3,2.9-2.9v-38.8
			C1180.5,1926.6,1179.7,1924.7,1178.7,1923.7z M1142.5,1914c0.4,0.2,0.9,0.3,1.4,0.3h26.2c0.3,0,0.6,0,0.9-0.1
			c0.1,0,0.3-0.1,0.4-0.2c0,0,0.1,0,0.1,0"/>
		<g>
			<g>
				<g>
					<path fill="#103A5C" d="M1133.3,1928.1c0-1.5,0.8-3.4,1.8-4.4l5.7-5.7c0.9-0.9,1.5-2.1,1.5-2.7v-1.5h1.2v1.5
						c0,1.1-0.9,2.7-1.8,3.6l-5.7,5.7c-0.8,0.8-1.5,2.4-1.5,3.6"/>
				</g>
				<g>
					<path fill="#103A5C" d="M1177.6,1969.8h-23.5v-1.2h23.5c1,0,1.8-0.8,1.8-1.8v-38.8c0-1.1-0.7-2.8-1.5-3.6l-5.7-5.7
						c-1-1-1.8-2.6-1.8-3.6v-1.5h1.2v1.5c0,0.6,0.6,1.9,1.5,2.7l5.7,5.7c1,1,1.8,3,1.8,4.4v38.8
						C1180.5,1968.5,1179.2,1969.8,1177.6,1969.8z"/>
				</g>
			</g>
			<g>
				<path fill="#103A5C" d="M1170,1914.4h-26.2c-1.6,0-2.9-1.3-2.9-2.9v-10.8c0-1.6,1.3-2.9,2.9-2.9h26.2c1.6,0,2.9,1.3,2.9,2.9
					v10.8C1173,1913,1171.7,1914.4,1170,1914.4z M1143.8,1898.9c-1,0-1.8,0.8-1.8,1.8v10.8c0,1,0.8,1.8,1.8,1.8h26.2
					c1,0,1.8-0.8,1.8-1.8v-10.8c0-1-0.8-1.8-1.8-1.8H1143.8z"/>
			</g>
			<g>
				<g>
					<rect x="1144.2" y="1898.3" fill="#103A5C" width="1.2" height="11.6"/>
				</g>
				<g>
					<rect x="1147.2" y="1898.3" fill="#103A5C" width="1.2" height="11.6"/>
				</g>
				<g>
					<rect x="1150.3" y="1898.3" fill="#103A5C" width="1.2" height="11.6"/>
				</g>
				<g>
					<rect x="1153.3" y="1898.3" fill="#103A5C" width="1.2" height="11.6"/>
				</g>
				<g>
					<rect x="1156.3" y="1898.3" fill="#103A5C" width="1.2" height="11.6"/>
				</g>
				<g>
					<rect x="1159.4" y="1898.3" fill="#103A5C" width="1.2" height="11.6"/>
				</g>
				<g>
					<rect x="1162.4" y="1898.3" fill="#103A5C" width="1.2" height="11.6"/>
				</g>
				<g>
					<rect x="1165.5" y="1898.3" fill="#103A5C" width="1.2" height="11.6"/>
				</g>
				<g>
					<rect x="1168.5" y="1898.3" fill="#103A5C" width="1.2" height="11.6"/>
				</g>
			</g>
			<g>
				<rect x="1141.5" y="1909.3" fill="#103A5C" width="30.9" height="1.2"/>
			</g>
			<g>
				<path fill="#103A5C" d="M1146,1956.2l-1.2-0.1V1932c0-1.6,1.3-2.9,2.9-2.9h32.2v1.2h-32.2c-1,0-1.8,0.8-1.8,1.8L1146,1956.2
					L1146,1956.2z"/>
				<path fill="#103A5C" d="M1179.9,1958.9h-32.2c-1.6,0-2.9-1.3-2.9-2.9v-24.2h1.2h0v24.2c0,1,0.8,1.8,1.8,1.8h32.2"/>
			</g>
			<path fill="#103A5C" d="M1136,1924.5c-0.8,0.8-1.5,2.4-1.5,3.6v38.8c0,1,0.8,1.8,1.8,1.8h23.5v1.2h-23.5c-1.6,0-2.9-1.3-2.9-2.9
				v-38.8c0-1.5,0.8-3.4,1.8-4.4"/>
		</g>
	</g>
	<g>
		<path fill="#FFFFFF" d="M1234.3,1923.9l-5.7-5.7c-0.9-0.9-1.5-2.1-1.5-2.7v-1.3c0.2-0.1,0.3-0.2,0.4-0.3c0.1-0.1,0.2-0.2,0.3-0.3
			c0,0,0.1-0.1,0.1-0.1c0.2-0.2,0.3-0.4,0.4-0.6c0-0.1,0.1-0.2,0.1-0.3c0-0.1,0.1-0.2,0.1-0.3c0.1-0.2,0.1-0.5,0.1-0.7v-10.8
			c0-1.6-1.3-2.9-2.9-2.9h-26.2c-1.6,0-2.9,1.3-2.9,2.9v10.8c0,1.1,0.6,2.1,1.5,2.6v1.3c0,0.6-0.6,1.9-1.5,2.7l-5.7,5.7
			c-1,1-1.9,3-1.9,4.4l0,38.8c0,1.6,1.3,2.9,2.9,2.9h17.8l0,0h23.5c1.6,0,2.9-1.3,2.9-2.9v-38.8
			C1236.1,1926.9,1235.3,1924.9,1234.3,1923.9z M1198,1914.3c0.4,0.2,0.9,0.3,1.4,0.3h26.2c0.3,0,0.6,0,0.9-0.1
			c0.1,0,0.3-0.1,0.4-0.2c0,0,0.1,0,0.1,0"/>
		<g>
			<g>
				<g>
					<path fill="#103A5C" d="M1188.9,1928.3c0-1.5,0.8-3.4,1.8-4.4l5.7-5.7c0.9-0.9,1.5-2.1,1.5-2.7v-1.5h1.2v1.5
						c0,1.1-0.9,2.7-1.8,3.6l-5.7,5.7c-0.8,0.8-1.5,2.4-1.5,3.6"/>
				</g>
				<g>
					<path fill="#103A5C" d="M1233.2,1970.1h-23.5v-1.2h23.5c1,0,1.8-0.8,1.8-1.8v-38.8c0-1.1-0.7-2.8-1.5-3.6l-5.7-5.7
						c-1-1-1.8-2.6-1.8-3.6v-1.5h1.2v1.5c0,0.6,0.6,1.9,1.5,2.7l5.7,5.7c1,1,1.8,3,1.8,4.4v38.8
						C1236.1,1968.7,1234.8,1970.1,1233.2,1970.1z"/>
				</g>
			</g>
			<g>
				<path fill="#103A5C" d="M1225.6,1914.6h-26.2c-1.6,0-2.9-1.3-2.9-2.9v-10.8c0-1.6,1.3-2.9,2.9-2.9h26.2c1.6,0,2.9,1.3,2.9,2.9
					v10.8C1228.6,1913.3,1227.3,1914.6,1225.6,1914.6z M1199.4,1899.1c-1,0-1.8,0.8-1.8,1.8v10.8c0,1,0.8,1.8,1.8,1.8h26.2
					c1,0,1.8-0.8,1.8-1.8v-10.8c0-1-0.8-1.8-1.8-1.8H1199.4z"/>
			</g>
			<g>
				<g>
					<rect x="1199.8" y="1898.5" fill="#103A5C" width="1.2" height="11.6"/>
				</g>
				<g>
					<rect x="1202.8" y="1898.5" fill="#103A5C" width="1.2" height="11.6"/>
				</g>
				<g>
					<rect x="1205.8" y="1898.5" fill="#103A5C" width="1.2" height="11.6"/>
				</g>
				<g>
					<rect x="1208.9" y="1898.5" fill="#103A5C" width="1.2" height="11.6"/>
				</g>
				<g>
					<rect x="1211.9" y="1898.5" fill="#103A5C" width="1.2" height="11.6"/>
				</g>
				<g>
					<rect x="1215" y="1898.5" fill="#103A5C" width="1.2" height="11.6"/>
				</g>
				<g>
					<rect x="1218" y="1898.5" fill="#103A5C" width="1.2" height="11.6"/>
				</g>
				<g>
					<rect x="1221" y="1898.5" fill="#103A5C" width="1.2" height="11.6"/>
				</g>
				<g>
					<rect x="1224.1" y="1898.5" fill="#103A5C" width="1.2" height="11.6"/>
				</g>
			</g>
			<g>
				<rect x="1197" y="1909.5" fill="#103A5C" width="30.9" height="1.2"/>
			</g>
			<g>
				<path fill="#103A5C" d="M1201.6,1956.4l-1.2-0.1v-24.1c0-1.6,1.3-2.9,2.9-2.9h32.2v1.2h-32.2c-1,0-1.8,0.8-1.8,1.8V1956.4
					L1201.6,1956.4z"/>
				<path fill="#103A5C" d="M1235.5,1959.1h-32.2c-1.6,0-2.9-1.3-2.9-2.9v-24.2h1.2l0,0v24.2c0,1,0.8,1.8,1.8,1.8h32.2"/>
			</g>
			<path fill="#103A5C" d="M1191.6,1924.7c-0.8,0.8-1.5,2.4-1.5,3.6v38.8c0,1,0.8,1.8,1.8,1.8h23.5v1.2h-23.5
				c-1.6,0-2.9-1.3-2.9-2.9v-38.8c0-1.5,0.8-3.4,1.8-4.4"/>
		</g>
	</g>
	<g>
		<path fill="#FFFFFF" d="M1206.1,1936.7l-5.7-5.7c-0.9-0.9-1.5-2.1-1.5-2.7v-1.3c0.2-0.1,0.3-0.2,0.4-0.3c0.1-0.1,0.2-0.2,0.3-0.3
			c0,0,0.1-0.1,0.1-0.1c0.2-0.2,0.3-0.4,0.4-0.6c0-0.1,0.1-0.2,0.1-0.3c0-0.1,0.1-0.2,0.1-0.3c0.1-0.2,0.1-0.5,0.1-0.7v-10.8
			c0-1.6-1.3-2.9-2.9-2.9h-26.2c-1.6,0-2.9,1.3-2.9,2.9v10.8c0,1.1,0.6,2.1,1.5,2.6v1.3c0,0.6-0.6,1.9-1.5,2.7l-5.7,5.7
			c-1,1-1.9,3-1.9,4.4l0,38.8c0,1.6,1.3,2.9,2.9,2.9h17.8l0,0h23.5c1.6,0,2.9-1.3,2.9-2.9v-38.8
			C1208,1939.6,1207.2,1937.7,1206.1,1936.7z M1169.9,1927c0.4,0.2,0.9,0.3,1.4,0.3h26.2c0.3,0,0.6,0,0.9-0.1c0.1,0,0.3-0.1,0.4-0.2
			c0,0,0.1,0,0.1,0"/>
		<g>
			<g>
				<g>
					<path fill="#103A5C" d="M1160.7,1941.1c0-1.5,0.8-3.4,1.8-4.4l5.7-5.7c0.9-0.9,1.5-2.1,1.5-2.7v-1.5h1.2v1.5
						c0,1.1-0.9,2.7-1.8,3.6l-5.7,5.7c-0.8,0.8-1.5,2.4-1.5,3.6"/>
				</g>
				<g>
					<path fill="#103A5C" d="M1205,1982.8h-23.5v-1.2h23.5c1,0,1.8-0.8,1.8-1.8v-38.8c0-1.1-0.7-2.8-1.5-3.6l-5.7-5.7
						c-1-1-1.8-2.6-1.8-3.6v-1.5h1.2v1.5c0,0.6,0.6,1.9,1.5,2.7l5.7,5.7c1,1,1.8,3,1.8,4.4v38.8
						C1208,1981.5,1206.6,1982.8,1205,1982.8z"/>
				</g>
			</g>
			<g>
				<path fill="#103A5C" d="M1197.5,1927.3h-26.2c-1.6,0-2.9-1.3-2.9-2.9v-10.8c0-1.6,1.3-2.9,2.9-2.9h26.2c1.6,0,2.9,1.3,2.9,2.9
					v10.8C1200.4,1926,1199.1,1927.3,1197.5,1927.3z M1171.2,1911.9c-1,0-1.8,0.8-1.8,1.8v10.8c0,1,0.8,1.8,1.8,1.8h26.2
					c1,0,1.8-0.8,1.8-1.8v-10.8c0-1-0.8-1.8-1.8-1.8H1171.2z"/>
			</g>
			<g>
				<g>
					<rect x="1171.6" y="1911.3" fill="#103A5C" width="1.2" height="11.6"/>
				</g>
				<g>
					<rect x="1174.6" y="1911.3" fill="#103A5C" width="1.2" height="11.6"/>
				</g>
				<g>
					<rect x="1177.7" y="1911.3" fill="#103A5C" width="1.2" height="11.6"/>
				</g>
				<g>
					<rect x="1180.7" y="1911.3" fill="#103A5C" width="1.2" height="11.6"/>
				</g>
				<g>
					<rect x="1183.8" y="1911.3" fill="#103A5C" width="1.2" height="11.6"/>
				</g>
				<g>
					<rect x="1186.8" y="1911.3" fill="#103A5C" width="1.2" height="11.6"/>
				</g>
				<g>
					<rect x="1189.8" y="1911.3" fill="#103A5C" width="1.2" height="11.6"/>
				</g>
				<g>
					<rect x="1192.9" y="1911.3" fill="#103A5C" width="1.2" height="11.6"/>
				</g>
				<g>
					<rect x="1195.9" y="1911.3" fill="#103A5C" width="1.2" height="11.6"/>
				</g>
			</g>
			<g>
				<rect x="1168.9" y="1922.3" fill="#103A5C" width="30.9" height="1.2"/>
			</g>
			<g>
				<path fill="#103A5C" d="M1173.5,1969.2l-1.2-0.1V1945c0-1.6,1.3-2.9,2.9-2.9h32.2v1.2h-32.2c-1,0-1.8,0.8-1.8,1.8V1969.2
					L1173.5,1969.2z"/>
				<path fill="#103A5C" d="M1207.4,1971.8h-32.2c-1.6,0-2.9-1.3-2.9-2.9v-24.2h1.2l0,0v24.2c0,1,0.8,1.8,1.8,1.8h32.2"/>
			</g>
			<path fill="#103A5C" d="M1163.4,1937.5c-0.8,0.8-1.5,2.4-1.5,3.6v38.8c0,1,0.8,1.8,1.8,1.8h23.5v1.2h-23.5
				c-1.6,0-2.9-1.3-2.9-2.9v-38.8c0-1.5,0.8-3.4,1.8-4.4"/>
		</g>
	</g>
</g>
</svg>
